<svg xmlns="http://www.w3.org/2000/svg" width="30" height="30" fill="#797a81" opacity=".6" xmlns:v="https://vecta.io/nano"><path d="M14.531 19.762a4.94 4.94 0 0 0 3.494-8.434 4.94 4.94 0 0 0-8.434 3.494 4.94 4.94 0 0 0 4.941 4.941zm0-7.411a2.47 2.47 0 0 1 1.746 4.217 2.47 2.47 0 0 1-4.217-1.747 2.47 2.47 0 0 1 2.47-2.47zM4.032 15.905l-1.235.715a2.47 2.47 0 0 0-.906 3.375l1.839 3.184a2.47 2.47 0 0 0 3.376.907l1.248-.721a1.24 1.24 0 0 1 .624-.16c.218.003.433.062.621.174a1.24 1.24 0 0 1 .447.448c.107.186.164.396.164.611v1.502a2.47 2.47 0 0 0 2.47 2.47h3.706a2.47 2.47 0 0 0 2.47-2.47v-1.504a1.23 1.23 0 0 1 .172-.612c.11-.185.265-.34.451-.448s.398-.165.614-.167a1.25 1.25 0 0 1 .616.157l1.246.719a2.47 2.47 0 0 0 3.374-.904l1.838-3.184a2.47 2.47 0 0 0-.906-3.375l-1.235-.715c-.192-.112-.35-.272-.458-.466s-.163-.412-.159-.634c.001-.216.058-.429.166-.616a1.23 1.23 0 0 1 .452-.451l1.235-.715a2.47 2.47 0 0 0 .906-3.375l-1.84-3.184a2.47 2.47 0 0 0-3.374-.906l-1.248.72c-.188.105-.401.16-.617.158a1.25 1.25 0 0 1-.614-.167c-.187-.108-.342-.263-.451-.449a1.25 1.25 0 0 1-.171-.613V3.705a2.47 2.47 0 0 0-2.47-2.47h-3.706a2.47 2.47 0 0 0-2.47 2.47v1.598c0 .185-.049.367-.142.528s-.226.294-.387.386l-.19.11a1.07 1.07 0 0 1-.527.139c-.185 0-.367-.048-.527-.139l-1.327-.77a2.47 2.47 0 0 0-3.376.905L1.894 9.65a2.47 2.47 0 0 0 .903 3.373l1.235.714a1.25 1.25 0 0 1 .618 1.101 1.23 1.23 0 0 1-.618 1.067zm1.235-4.307l-1.235-.714L5.872 7.7l1.327.766a3.53 3.53 0 0 0 3.52 0l.19-.109c.536-.31.982-.754 1.292-1.29s.475-1.144.476-1.763V3.705h3.706v1.502a3.72 3.72 0 0 0 .501 1.849 3.71 3.71 0 0 0 1.355 1.353c.562.324 1.2.497 1.85.498a3.72 3.72 0 0 0 1.852-.489l1.244-.719 1.844 3.184-1.235.714a3.73 3.73 0 0 0-1.353 1.366 3.74 3.74 0 0 0 0 3.716 3.74 3.74 0 0 0 1.353 1.366l1.235.715-1.838 3.184-1.25-.719c-.564-.322-1.203-.491-1.852-.489s-1.287.173-1.85.498-1.03.792-1.355 1.354-.498 1.199-.501 1.849v1.502h-3.706v-1.502a3.71 3.71 0 0 0-.5-1.85c-.326-.562-.793-1.029-1.356-1.354a3.71 3.71 0 0 0-3.703-.007l-1.244.719-1.844-3.184 1.235-.715a3.73 3.73 0 0 0 1.353-1.366 3.74 3.74 0 0 0 0-3.716 3.74 3.74 0 0 0-1.353-1.366z"/></svg>