<svg width="17" height="21" viewBox="0 0 24 30" fill="none" xmlns="http://www.w3.org/2000/svg">
<path d="M6.17062 26.9436H16.942C18.7359 26.9436 19.901 25.8453 19.9851 24.0493L20.779 7.16631H22.0755C22.653 7.16631 23.103 6.70764 23.103 6.13015C23.103 5.55687 22.653 5.10781 22.0755 5.10781H1.0371C0.469216 5.10781 0 5.55687 0 6.13015C0 6.71725 0.469216 7.16631 1.0371 7.16631H2.33367L3.1275 24.0589C3.21375 25.8549 4.3575 26.9436 6.17062 26.9436ZM6.40218 24.8703C5.75319 24.8703 5.28936 24.3917 5.25631 23.7003L4.4592 7.16631H18.6033L17.8467 23.7003C17.8233 24.4034 17.3594 24.8703 16.6912 24.8703H6.40218ZM8.10069 22.9761C8.59452 22.9761 8.9128 22.6632 8.90108 22.2024L8.54202 9.91647C8.52819 9.45991 8.20569 9.15663 7.73319 9.15663C7.24359 9.15663 6.92742 9.46952 6.93913 9.92819L7.28859 22.2087C7.30242 22.6749 7.62702 22.9761 8.10069 22.9761ZM11.5526 22.9761C12.038 22.9761 12.3797 22.6674 12.3797 22.2109V9.92397C12.3797 9.46741 12.038 9.15663 11.5526 9.15663C11.0651 9.15663 10.733 9.46741 10.733 9.92397V22.2109C10.733 22.6674 11.0651 22.9761 11.5526 22.9761ZM15.0119 22.9761C15.4781 22.9761 15.8006 22.6749 15.8144 22.2087L16.1639 9.92819C16.1756 9.46952 15.8594 9.15663 15.3698 9.15663C14.8973 9.15663 14.5748 9.45991 14.561 9.92608L14.2116 22.2024C14.1998 22.6632 14.5181 22.9761 15.0119 22.9761ZM6.22875 5.89133H8.39155V3.45734C8.39155 2.85054 8.816 2.46124 9.46851 2.46124H13.6153C14.2678 2.46124 14.6923 2.85054 14.6923 3.45734V5.89133H16.8551V3.34859C16.8551 1.55656 15.7113 0.5 13.7695 0.5H9.31429C7.3725 0.5 6.22875 1.55656 6.22875 3.34859V5.89133Z" />
</svg>
