<svg width="154" height="46" viewBox="0 0 154 46" fill="none" xmlns="http://www.w3.org/2000/svg">
<rect width="154" height="46" rx="10" fill="black"/>
<path d="M32.4491 23.9752C32.4643 22.7998 32.7776 21.6473 33.3598 20.6249C33.9421 19.6026 34.7743 18.7436 35.7792 18.128C35.1408 17.2194 34.2987 16.4717 33.3196 15.9442C32.3406 15.4167 31.2517 15.124 30.1393 15.0894C27.7663 14.8411 25.4659 16.5044 24.2567 16.5044C23.0241 16.5044 21.1623 15.114 19.1575 15.1551C17.8607 15.1969 16.597 15.5727 15.4893 16.2459C14.3816 16.9191 13.4677 17.8669 12.8368 18.9967C10.1039 23.7122 12.1424 30.6424 14.7603 34.4541C16.0701 36.3206 17.6009 38.4055 19.6039 38.3315C21.564 38.2505 22.296 37.0859 24.662 37.0859C27.006 37.0859 27.6928 38.3315 29.7364 38.2845C31.8396 38.2505 33.1648 36.4098 34.4286 34.5256C35.3697 33.1957 36.0939 31.7258 36.5743 30.1705C35.3524 29.6555 34.3096 28.7933 33.576 27.6916C32.8425 26.59 32.4505 25.2974 32.4491 23.9752Z" fill="white"/>
<path d="M28.5897 12.5821C29.7364 11.2102 30.3014 9.44676 30.1646 7.66637C28.4126 7.84975 26.7942 8.68424 25.632 10.0036C25.0637 10.6481 24.6285 11.3979 24.3511 12.2102C24.0738 13.0224 23.9599 13.8812 24.0158 14.7373C24.8921 14.7463 25.759 14.557 26.5513 14.1837C27.3436 13.8104 28.0405 13.2628 28.5897 12.5821Z" fill="white"/>
<path d="M58.0127 30.5589H52.0631L50.6343 34.6672H48.1143L53.7496 19.4674H56.3678L62.0032 34.6672H59.4402L58.0127 30.5589ZM52.6793 28.6631H57.3953L55.0705 21.9955H55.0054L52.6793 28.6631Z" fill="white"/>
<path d="M74.1737 29.1268C74.1737 32.5706 72.281 34.7831 69.4246 34.7831C68.7011 34.82 67.9815 34.6577 67.3482 34.3148C66.715 33.9719 66.1937 33.4623 65.8441 32.8443H65.79V38.3332H63.4541V23.5853H65.7152V25.4285H65.7581C66.1238 24.8135 66.6539 24.3065 67.292 23.9615C67.9301 23.6165 68.6522 23.4464 69.3817 23.4693C72.2699 23.4694 74.1737 25.6927 74.1737 29.1268ZM71.7728 29.1268C71.7728 26.8832 70.5821 25.4082 68.7654 25.4082C66.9807 25.4082 65.7802 26.9143 65.7802 29.1268C65.7802 31.3597 66.9807 32.855 68.7654 32.855C70.5821 32.855 71.7728 31.3908 71.7728 29.1268Z" fill="white"/>
<path d="M86.6991 29.1269C86.6991 32.5706 84.8064 34.7832 81.95 34.7832C81.2264 34.82 80.5068 34.6577 79.8736 34.3148C79.2404 33.9719 78.7191 33.4623 78.3694 32.8443H78.3154V38.3333H75.9795V23.5854H78.2405V25.4286H78.2835C78.6492 24.8135 79.1793 24.3066 79.8173 23.9616C80.4554 23.6166 81.1776 23.4465 81.907 23.4694C84.7953 23.4694 86.6991 25.6927 86.6991 29.1269ZM84.2982 29.1269C84.2982 26.8833 83.1075 25.4082 81.2908 25.4082C79.5061 25.4082 78.3056 26.9143 78.3056 29.1269C78.3056 31.3598 79.5061 32.8551 81.2908 32.8551C83.1075 32.8551 84.2982 31.3908 84.2982 29.1269H84.2982Z" fill="white"/>
<path d="M94.9761 30.4322C95.1492 31.9395 96.6529 32.9292 98.7077 32.9292C100.677 32.9292 102.093 31.9394 102.093 30.5803C102.093 29.4006 101.239 28.6941 99.2159 28.21L97.193 27.7355C94.3268 27.0613 92.9962 25.756 92.9962 23.6379C92.9962 21.0153 95.3432 19.214 98.6758 19.214C101.974 19.214 104.235 21.0153 104.311 23.6379H101.953C101.812 22.121 100.524 21.2054 98.6426 21.2054C96.7609 21.2054 95.4732 22.1318 95.4732 23.4801C95.4732 24.5547 96.2957 25.187 98.3075 25.6711L100.027 26.0823C103.23 26.8198 104.56 28.0725 104.56 30.2958C104.56 33.1395 102.234 34.9205 98.5346 34.9205C95.0731 34.9205 92.7359 33.1813 92.585 30.4321L94.9761 30.4322Z" fill="white"/>
<path d="M109.603 20.9632V23.5858H111.767V25.3871H109.603V31.4964C109.603 32.4455 110.036 32.8878 110.987 32.8878C111.244 32.8834 111.501 32.8659 111.756 32.8352V34.6258C111.328 34.7036 110.893 34.7388 110.458 34.731C108.154 34.731 107.256 33.8883 107.256 31.7391V25.3871H105.601V23.5858H107.256V20.9632H109.603Z" fill="white"/>
<path d="M113.02 29.127C113.02 25.6403 115.129 23.4492 118.418 23.4492C121.717 23.4492 123.816 25.6402 123.816 29.127C123.816 32.6233 121.728 34.8048 118.418 34.8048C115.108 34.8048 113.02 32.6233 113.02 29.127ZM121.436 29.127C121.436 26.7352 120.31 25.3235 118.417 25.3235C116.525 25.3235 115.4 26.7459 115.4 29.127C115.4 31.5284 116.525 32.9293 118.417 32.9293C120.31 32.9293 121.436 31.5284 121.436 29.127H121.436Z" fill="white"/>
<path d="M125.741 23.5851H127.969V25.4713H128.023C128.174 24.8822 128.528 24.3616 129.027 23.997C129.525 23.6323 130.137 23.446 130.76 23.4691C131.029 23.4682 131.298 23.4967 131.561 23.554V25.6817C131.221 25.5805 130.866 25.5341 130.511 25.5442C130.172 25.5308 129.833 25.5891 129.519 25.715C129.205 25.8409 128.923 26.0316 128.692 26.2738C128.46 26.516 128.286 26.8041 128.18 27.1183C128.073 27.4324 128.038 27.7652 128.077 28.0938V34.6669H125.741L125.741 23.5851Z" fill="white"/>
<path d="M142.332 31.4125C142.017 33.4242 140.006 34.8048 137.431 34.8048C134.121 34.8048 132.066 32.6448 132.066 29.1796C132.066 25.7036 134.132 23.4492 137.333 23.4492C140.482 23.4492 142.462 25.5554 142.462 28.9154V29.6948H134.424V29.8323C134.387 30.2401 134.439 30.651 134.578 31.0375C134.716 31.4241 134.938 31.7776 135.227 32.0745C135.517 32.3714 135.868 32.6049 136.257 32.7595C136.647 32.9141 137.065 32.9862 137.486 32.9712C138.038 33.0215 138.591 32.897 139.065 32.6162C139.538 32.3354 139.906 31.9132 140.114 31.4125L142.332 31.4125ZM134.435 28.105H140.125C140.146 27.7383 140.088 27.3713 139.957 27.0271C139.825 26.6829 139.622 26.3689 139.36 26.1048C139.098 25.8407 138.783 25.6322 138.434 25.4924C138.085 25.3526 137.71 25.2845 137.333 25.2924C136.953 25.2902 136.576 25.3614 136.224 25.5018C135.872 25.6423 135.552 25.8492 135.282 26.1107C135.013 26.3722 134.799 26.683 134.654 27.0253C134.509 27.3676 134.434 27.7346 134.435 28.105V28.105Z" fill="white"/>
<path d="M52.3863 8.02594C52.876 7.99172 53.3674 8.06376 53.8251 8.23688C54.2828 8.41 54.6953 8.67987 55.0329 9.02703C55.3705 9.37419 55.6247 9.78998 55.7773 10.2444C55.9299 10.6989 55.9771 11.1806 55.9153 11.6549C55.9153 13.9882 54.6203 15.3294 52.3863 15.3294H49.6772V8.02594H52.3863ZM50.8421 14.2966H52.2562C52.6061 14.3169 52.9563 14.2611 53.2813 14.133C53.6063 14.005 53.8978 13.808 54.1347 13.5563C54.3717 13.3047 54.548 13.0048 54.6509 12.6785C54.7538 12.3521 54.7807 12.0076 54.7296 11.6698C54.7769 11.3334 54.7473 10.991 54.6429 10.667C54.5384 10.3431 54.3616 10.0456 54.1253 9.79603C53.8889 9.54641 53.5987 9.35081 53.2756 9.22322C52.9524 9.09563 52.6043 9.03923 52.2562 9.05804H50.8421V14.2966Z" fill="white"/>
<path d="M57.2309 12.5719C57.1953 12.2097 57.2379 11.8442 57.3558 11.499C57.4738 11.1537 57.6645 10.8363 57.9158 10.567C58.1671 10.2977 58.4735 10.0826 58.8152 9.93538C59.1569 9.78816 59.5264 9.71211 59.9 9.71211C60.2737 9.71211 60.6432 9.78816 60.9849 9.93538C61.3266 10.0826 61.633 10.2977 61.8843 10.567C62.1356 10.8363 62.3263 11.1537 62.4443 11.499C62.5622 11.8442 62.6048 12.2097 62.5692 12.5719C62.6055 12.9344 62.5634 13.3004 62.4458 13.6462C62.3281 13.992 62.1375 14.3101 61.8861 14.5798C61.6348 14.8496 61.3282 15.0652 60.9861 15.2128C60.6441 15.3603 60.2741 15.4365 59.9 15.4365C59.526 15.4365 59.156 15.3603 58.814 15.2128C58.4719 15.0652 58.1653 14.8496 57.914 14.5798C57.6626 14.3101 57.472 13.992 57.3543 13.6462C57.2367 13.3004 57.1946 12.9344 57.2309 12.5719ZM61.4203 12.5719C61.4203 11.3771 60.8691 10.6785 59.9019 10.6785C58.931 10.6785 58.3848 11.3771 58.3848 12.5719C58.3848 13.7762 58.931 14.4695 59.9019 14.4695C60.8692 14.4694 61.4203 13.7714 61.4203 12.5719H61.4203Z" fill="white"/>
<path d="M69.6651 15.3298H68.5064L67.3366 11.2704H67.2482L66.0833 15.3298H64.9356L63.3755 9.81813H64.5085L65.5224 14.0238H65.6058L66.7695 9.81813H67.8411L69.0047 14.0238H69.0931L70.1021 9.81813H71.2191L69.6651 15.3298Z" fill="white"/>
<path d="M72.5313 9.81764H73.6065V10.6932H73.69C73.8316 10.3787 74.0704 10.1151 74.3732 9.9391C74.6759 9.76308 75.0276 9.68343 75.379 9.71125C75.6544 9.69109 75.9309 9.73152 76.1881 9.82956C76.4453 9.9276 76.6765 10.0807 76.8646 10.2776C77.0528 10.4745 77.193 10.7101 77.275 10.9669C77.3569 11.2237 77.3785 11.4952 77.3381 11.7612V15.3292H76.2211V12.0344C76.2211 11.1486 75.8258 10.7082 74.9997 10.7082C74.8127 10.6997 74.6261 10.7307 74.4526 10.799C74.279 10.8673 74.1227 10.9714 73.9944 11.1041C73.866 11.2367 73.7686 11.3949 73.7089 11.5676C73.6491 11.7404 73.6284 11.9236 73.6483 12.1049V15.3293H72.5312L72.5313 9.81764Z" fill="white"/>
<path d="M79.1182 7.66637H80.2352V15.3296H79.1182V7.66637Z" fill="white"/>
<path d="M81.7875 12.5711C81.7519 12.2088 81.7945 11.8434 81.9125 11.4981C82.0305 11.1528 82.2213 10.8354 82.4726 10.5661C82.7239 10.2968 83.0303 10.0817 83.372 9.93448C83.7137 9.78726 84.0833 9.71121 84.457 9.71121C84.8306 9.71121 85.2002 9.78726 85.5419 9.93448C85.8836 10.0817 86.19 10.2968 86.4413 10.5661C86.6927 10.8354 86.8835 11.1528 87.0014 11.4981C87.1194 11.8434 87.162 12.2088 87.1264 12.5711C87.1626 12.9337 87.1206 13.2996 87.0029 13.6454C86.8852 13.9913 86.6945 14.3093 86.4431 14.579C86.1917 14.8488 85.8852 15.0644 85.5431 15.2119C85.201 15.3595 84.8311 15.4357 84.457 15.4357C84.0829 15.4357 83.7129 15.3595 83.3708 15.2119C83.0288 15.0644 82.7222 14.8488 82.4708 14.579C82.2194 14.3093 82.0287 13.9913 81.911 13.6454C81.7934 13.2996 81.7513 12.9337 81.7875 12.5711ZM85.9769 12.5711C85.9769 11.3763 85.4257 10.6777 84.4585 10.6777C83.4876 10.6777 82.9414 11.3763 82.9414 12.5711C82.9414 13.7754 83.4876 14.4687 84.4585 14.4687C85.4258 14.4686 85.9769 13.7706 85.9769 12.5711H85.9769Z" fill="white"/>
<path d="M88.3027 13.7705C88.3027 12.7784 89.0613 12.2064 90.4079 12.1252L91.941 12.0391V11.5634C91.941 10.9812 91.5457 10.6525 90.7822 10.6525C90.1587 10.6525 89.7266 10.8755 89.6026 11.2651H88.5212C88.6354 10.3184 89.5499 9.71121 90.8338 9.71121C92.2528 9.71121 93.0531 10.3991 93.0531 11.5634V15.3292H91.9778V14.5547H91.8894C91.7101 14.8325 91.4582 15.059 91.1595 15.211C90.8608 15.3631 90.526 15.4352 90.1894 15.42C89.9518 15.4441 89.7116 15.4194 89.4844 15.3476C89.2572 15.2757 89.048 15.1583 88.8702 15.0029C88.6925 14.8475 88.5501 14.6575 88.4524 14.4453C88.3547 14.233 88.3037 14.0032 88.3027 13.7705ZM91.941 13.2996V12.8388L90.5588 12.9248C89.7794 12.9756 89.4259 13.2338 89.4259 13.7197C89.4259 14.2158 89.8678 14.5044 90.4754 14.5044C90.6535 14.522 90.8333 14.5045 91.0043 14.453C91.1752 14.4015 91.3338 14.317 91.4705 14.2046C91.6072 14.0921 91.7194 13.9541 91.8002 13.7986C91.881 13.6431 91.9289 13.4734 91.941 13.2996Z" fill="white"/>
<path d="M94.5225 12.5714C94.5225 10.8298 95.4419 9.72653 96.8719 9.72653C97.2256 9.71066 97.5766 9.79316 97.884 9.96439C98.1914 10.1356 98.4423 10.3885 98.6075 10.6935H98.691V7.66637H99.808V15.3296H98.7376V14.4588H98.6493C98.4713 14.7617 98.2116 15.0115 97.8983 15.181C97.585 15.3505 97.23 15.4333 96.8719 15.4204C95.432 15.4205 94.5225 14.3172 94.5225 12.5714ZM95.6763 12.5714C95.6763 13.7404 96.2422 14.4439 97.1886 14.4439C98.1301 14.4439 98.7119 13.7303 98.7119 12.5762C98.7119 11.4275 98.1239 10.7037 97.1886 10.7037C96.2483 10.7037 95.6763 11.4119 95.6763 12.5714H95.6763Z" fill="white"/>
<path d="M104.428 12.5719C104.393 12.2097 104.435 11.8442 104.553 11.499C104.671 11.1537 104.862 10.8363 105.113 10.567C105.365 10.2977 105.671 10.0826 106.013 9.93538C106.354 9.78816 106.724 9.71211 107.098 9.71211C107.471 9.71211 107.841 9.78816 108.182 9.93538C108.524 10.0826 108.83 10.2977 109.082 10.567C109.333 10.8363 109.524 11.1537 109.642 11.499C109.76 11.8442 109.802 12.2097 109.767 12.5719C109.803 12.9344 109.761 13.3004 109.643 13.6462C109.526 13.992 109.335 14.3101 109.084 14.5798C108.832 14.8496 108.526 15.0652 108.184 15.2128C107.842 15.3603 107.472 15.4365 107.098 15.4365C106.723 15.4365 106.354 15.3603 106.011 15.2128C105.669 15.0652 105.363 14.8496 105.111 14.5798C104.86 14.3101 104.669 13.992 104.552 13.6462C104.434 13.3004 104.392 12.9344 104.428 12.5719ZM108.618 12.5719C108.618 11.3771 108.067 10.6785 107.099 10.6785C106.128 10.6785 105.582 11.3771 105.582 12.5719C105.582 13.7762 106.129 14.4695 107.099 14.4695C108.067 14.4694 108.618 13.7714 108.618 12.5719Z" fill="white"/>
<path d="M111.266 9.81764H112.341V10.6932H112.425C112.566 10.3787 112.805 10.1151 113.108 9.9391C113.411 9.76308 113.762 9.68343 114.114 9.71125C114.389 9.69109 114.666 9.73152 114.923 9.82956C115.18 9.9276 115.411 10.0807 115.599 10.2776C115.787 10.4745 115.928 10.7101 116.01 10.9669C116.092 11.2237 116.113 11.4952 116.073 11.7612V15.3292H114.956V12.0344C114.956 11.1486 114.56 10.7082 113.734 10.7082C113.547 10.6997 113.361 10.7307 113.187 10.799C113.014 10.8673 112.857 10.9714 112.729 11.1041C112.601 11.2367 112.503 11.3949 112.443 11.5676C112.384 11.7404 112.363 11.9236 112.383 12.1049V15.3293H111.266V9.81764Z" fill="white"/>
<path d="M122.385 8.44531V9.84265H123.611V10.7589H122.385V13.593C122.385 14.1703 122.629 14.4231 123.185 14.4231C123.327 14.4227 123.47 14.4143 123.611 14.398V15.3041C123.41 15.339 123.207 15.3576 123.003 15.3597C121.761 15.3597 121.266 14.9341 121.266 13.8715V10.7588H120.368V9.8426H121.266V8.44531H122.385Z" fill="white"/>
<path d="M125.136 7.66637H126.243V10.7037H126.331C126.48 10.3863 126.725 10.1212 127.034 9.94449C127.343 9.76781 127.7 9.68814 128.057 9.71635C128.331 9.70184 128.605 9.74638 128.859 9.8468C129.113 9.94722 129.342 10.101 129.528 10.2973C129.714 10.4936 129.854 10.7274 129.936 10.9822C130.019 11.2369 130.043 11.5063 130.006 11.7711V15.3296H128.888V12.0395C128.888 11.1591 128.467 10.7132 127.678 10.7132C127.486 10.6979 127.293 10.7236 127.112 10.7885C126.931 10.8535 126.767 10.9561 126.632 11.0892C126.496 11.2223 126.392 11.3827 126.326 11.5591C126.261 11.7355 126.236 11.9237 126.253 12.1106V15.3296H125.136L125.136 7.66637Z" fill="white"/>
<path d="M136.52 13.8411C136.368 14.3449 136.04 14.7806 135.591 15.0721C135.143 15.3636 134.604 15.4923 134.068 15.4357C133.695 15.4453 133.324 15.3757 132.982 15.2319C132.639 15.088 132.333 14.8733 132.084 14.6026C131.835 14.332 131.65 14.0118 131.541 13.6644C131.432 13.317 131.402 12.9507 131.453 12.5908C131.403 12.2299 131.434 11.8628 131.543 11.5143C131.651 11.1659 131.836 10.8443 132.083 10.5712C132.331 10.2982 132.635 10.0801 132.977 9.93173C133.318 9.78337 133.689 9.7082 134.063 9.7113C135.638 9.7113 136.588 10.7591 136.588 12.4898V12.8694H132.591V12.9303C132.573 13.1326 132.6 13.3362 132.668 13.528C132.736 13.7199 132.844 13.8958 132.986 14.0445C133.128 14.1931 133.3 14.3113 133.492 14.3913C133.683 14.4714 133.89 14.5116 134.098 14.5093C134.366 14.5405 134.636 14.4937 134.876 14.3747C135.116 14.2557 135.314 14.07 135.445 13.8411L136.52 13.8411ZM132.591 12.0649H135.45C135.464 11.8799 135.438 11.6941 135.374 11.5194C135.31 11.3447 135.209 11.185 135.078 11.0506C134.947 10.9161 134.788 10.8098 134.612 10.7386C134.436 10.6674 134.247 10.6328 134.057 10.6371C133.863 10.6347 133.672 10.67 133.493 10.741C133.314 10.8119 133.151 10.917 133.015 11.0501C132.878 11.1831 132.77 11.3415 132.697 11.5158C132.625 11.6901 132.588 11.8768 132.591 12.0649H132.591Z" fill="white"/>
</svg>
