<svg width="156" height="46" viewBox="0 0 156 46" fill="none" xmlns="http://www.w3.org/2000/svg">
<rect width="156" height="46" rx="10" fill="black"/>
<path d="M24.0834 22.3115L11.5083 35.7847C11.5095 35.7871 11.5095 35.7907 11.5107 35.7931C11.8969 37.2561 13.2197 38.3327 14.7906 38.3327C15.4189 38.3327 16.0083 38.161 16.5138 37.8606L16.5539 37.8367L30.7081 29.5918L24.0834 22.3115Z" fill="#EA4335"/>
<path d="M36.8035 20.0178L36.7917 20.0095L30.6807 16.4337L23.7961 22.6183L30.7055 29.5909L36.7834 26.0509C37.8488 25.4691 38.5728 24.3352 38.5728 23.0284C38.5728 21.7288 37.8594 20.6009 36.8035 20.0178Z" fill="#FBBC04"/>
<path d="M11.5076 10.2131C11.432 10.4945 11.3918 10.7902 11.3918 11.0954V34.9036C11.3918 35.2089 11.432 35.5046 11.5088 35.7848L24.515 22.6561L11.5076 10.2131Z" fill="#4285F4"/>
<path d="M24.175 23L30.6828 16.4315L16.5451 8.15682C16.0314 7.84562 15.4314 7.66677 14.79 7.66677C13.2192 7.66677 11.894 8.74582 11.5078 10.21C11.5078 10.2112 11.5066 10.2124 11.5066 10.2136L24.175 23Z" fill="#34A853"/>
<path d="M57.0831 11.4734C57.0831 12.4178 56.8062 13.1695 56.2513 13.7308C55.6206 14.398 54.8 14.7316 53.7908 14.7316C52.8229 14.7316 52.0013 14.3935 51.3258 13.7161C50.6482 13.0399 50.311 12.2003 50.311 11.1995C50.311 10.1976 50.6482 9.35913 51.3258 8.6818C52.0013 8.0056 52.8229 7.66637 53.7908 7.66637C54.2698 7.66637 54.7297 7.76104 55.1651 7.95038C55.6016 8.13971 55.951 8.39103 56.2134 8.70547L55.6239 9.30052C55.1807 8.76632 54.5701 8.4981 53.7908 8.4981C53.0853 8.4981 52.4757 8.74829 51.9611 9.24868C51.4464 9.7502 51.1896 10.3994 51.1896 11.1995C51.1896 11.9986 51.4464 12.6489 51.9611 13.1492C52.4757 13.6508 53.0853 13.8998 53.7908 13.8998C54.5388 13.8998 55.1618 13.6485 55.6619 13.1447C55.9856 12.8168 56.1721 12.3615 56.2223 11.7754H53.7908V10.9629H57.0362C57.0674 11.1398 57.0831 11.31 57.0831 11.4734Z" fill="white"/>
<path d="M57.0831 11.4734C57.0831 12.4178 56.8062 13.1695 56.2513 13.7308C55.6206 14.398 54.8 14.7316 53.7908 14.7316C52.8229 14.7316 52.0013 14.3935 51.3258 13.7161C50.6482 13.0399 50.311 12.2003 50.311 11.1995C50.311 10.1976 50.6482 9.35913 51.3258 8.6818C52.0013 8.0056 52.8229 7.66637 53.7908 7.66637C54.2698 7.66637 54.7297 7.76104 55.1651 7.95038C55.6016 8.13971 55.951 8.39103 56.2134 8.70547L55.6239 9.30052C55.1807 8.76632 54.5701 8.4981 53.7908 8.4981C53.0853 8.4981 52.4757 8.74829 51.9611 9.24868C51.4464 9.7502 51.1896 10.3994 51.1896 11.1995C51.1896 11.9986 51.4464 12.6489 51.9611 13.1492C52.4757 13.6508 53.0853 13.8998 53.7908 13.8998C54.5388 13.8998 55.1618 13.6485 55.6619 13.1447C55.9856 12.8168 56.1721 12.3615 56.2223 11.7754H53.7908V10.9629H57.0362C57.0674 11.1398 57.0831 11.31 57.0831 11.4734Z" fill="white"/>
<path d="M62.2296 8.64933H59.1796V10.7929H61.9304V11.6055H59.1796V13.749H62.2296V14.5807H58.3188V7.81873H62.2296V8.64933Z" fill="white"/>
<path d="M62.2296 8.64933H59.1796V10.7929H61.9304V11.6055H59.1796V13.749H62.2296V14.5807H58.3188V7.81873H62.2296V8.64933Z" fill="white"/>
<path d="M65.8575 14.5807H64.9968V8.64933H63.1257V7.81873H67.7286V8.64933H65.8575V14.5807Z" fill="white"/>
<path d="M65.8575 14.5807H64.9968V8.64933H63.1257V7.81873H67.7286V8.64933H65.8575V14.5807Z" fill="white"/>
<path d="M71.0603 7.81873H71.921V14.5807H71.0603V7.81873Z" fill="white"/>
<path d="M75.7384 14.5807H74.8777V8.64933H73.0066V7.81873H77.6095V8.64933H75.7384V14.5807Z" fill="white"/>
<path d="M75.7384 14.5807H74.8777V8.64933H73.0066V7.81873H77.6095V8.64933H75.7384V14.5807Z" fill="white"/>
<path d="M82.0469 13.1403C82.5426 13.6475 83.1488 13.8999 83.8666 13.8999C84.5845 13.8999 85.1907 13.6475 85.6864 13.1403C86.182 12.6332 86.431 11.9863 86.431 11.1996C86.431 10.413 86.182 9.76497 85.6864 9.25895C85.1907 8.7518 84.5845 8.49822 83.8666 8.49822C83.1488 8.49822 82.5426 8.7518 82.0469 9.25895C81.5524 9.76497 81.3034 10.413 81.3034 11.1996C81.3034 11.9863 81.5524 12.6332 82.0469 13.1403ZM86.3227 13.7061C85.664 14.3902 84.8457 14.7317 83.8666 14.7317C82.8876 14.7317 82.0692 14.3902 81.4117 13.7061C80.753 13.0231 80.4248 12.188 80.4248 11.1996C80.4248 10.2113 80.753 9.37503 81.4117 8.69207C82.0692 8.0091 82.8876 7.66649 83.8666 7.66649C84.8401 7.66649 85.6562 8.01023 86.3182 8.69657C86.9791 9.38292 87.3096 10.2169 87.3096 11.1996C87.3096 12.188 86.9802 13.0231 86.3227 13.7061Z" fill="white"/>
<path d="M82.0469 13.1403C82.5426 13.6475 83.1488 13.8999 83.8666 13.8999C84.5845 13.8999 85.1907 13.6475 85.6864 13.1403C86.182 12.6332 86.431 11.9863 86.431 11.1996C86.431 10.413 86.182 9.76497 85.6864 9.25895C85.1907 8.7518 84.5845 8.49822 83.8666 8.49822C83.1488 8.49822 82.5426 8.7518 82.0469 9.25895C81.5524 9.76497 81.3034 10.413 81.3034 11.1996C81.3034 11.9863 81.5524 12.6332 82.0469 13.1403ZM86.3227 13.7061C85.664 14.3902 84.8457 14.7317 83.8666 14.7317C82.8876 14.7317 82.0692 14.3902 81.4117 13.7061C80.753 13.0231 80.4248 12.188 80.4248 11.1996C80.4248 10.2113 80.753 9.37503 81.4117 8.69207C82.0692 8.0091 82.8876 7.66649 83.8666 7.66649C84.8401 7.66649 85.6562 8.01023 86.3182 8.69657C86.9791 9.38292 87.3096 10.2169 87.3096 11.1996C87.3096 12.188 86.9802 13.0231 86.3227 13.7061Z" fill="white"/>
<path d="M88.5171 14.5807V7.81873H89.5643L92.8197 13.0785H92.8576L92.8197 11.7756V7.81873H93.6815V14.5807H92.7828L89.3767 9.0652H89.3399L89.3767 10.3691V14.5807H88.5171Z" fill="white"/>
<path d="M88.5171 14.5807V7.81873H89.5643L92.8197 13.0785H92.8576L92.8197 11.7756V7.81873H93.6815V14.5807H92.7828L89.3767 9.0652H89.3399L89.3767 10.3691V14.5807H88.5171Z" fill="white"/>
<path d="M123.529 33.7391H125.612V19.6504H123.529V33.7391ZM142.292 24.7253L139.904 30.8337H139.832L137.354 24.7253H135.11L138.826 33.2623L136.709 38.0115H138.88L144.608 24.7253H142.292ZM130.478 32.1387C129.795 32.1387 128.844 31.795 128.844 30.9418C128.844 29.8554 130.028 29.4384 131.052 29.4384C131.967 29.4384 132.399 29.6379 132.955 29.9095C132.793 31.2146 131.68 32.1387 130.478 32.1387ZM130.729 24.4176C129.221 24.4176 127.658 25.0882 127.013 26.5747L128.862 27.3535C129.257 26.5747 129.992 26.32 130.765 26.32C131.842 26.32 132.937 26.9725 132.955 28.1334V28.2776C132.578 28.0601 131.771 27.7344 130.783 27.7344C128.79 27.7344 126.76 28.84 126.76 30.9058C126.76 32.7913 128.395 34.0062 130.226 34.0062C131.627 34.0062 132.399 33.3717 132.884 32.6278H132.955V33.7154H134.966V28.3137C134.966 25.8129 133.117 24.4176 130.729 24.4176ZM117.855 26.4406H114.892V21.6114H117.855C119.412 21.6114 120.297 22.9131 120.297 24.0254C120.297 25.1175 119.412 26.4406 117.855 26.4406ZM117.801 19.6504H112.81V33.7391H114.892V28.4016H117.801C120.11 28.4016 122.38 26.7133 122.38 24.0254C122.38 21.3375 120.11 19.6504 117.801 19.6504ZM90.5827 32.141C89.1437 32.141 87.9391 30.9249 87.9391 29.2547C87.9391 27.5665 89.1437 26.3313 90.5827 26.3313C92.0039 26.3313 93.118 27.5665 93.118 29.2547C93.118 30.9249 92.0039 32.141 90.5827 32.141ZM92.9751 25.5142H92.9026C92.4348 24.9518 91.5361 24.4436 90.403 24.4436C88.0284 24.4436 85.8526 26.5488 85.8526 29.2547C85.8526 31.9415 88.0284 34.0298 90.403 34.0298C91.5361 34.0298 92.4348 33.5216 92.9026 32.94H92.9751V33.6309C92.9751 35.4645 92.0039 36.445 90.4387 36.445C89.1615 36.445 88.37 35.5186 88.0463 34.7376L86.2299 35.5006C86.7513 36.7718 88.1367 38.3327 90.4387 38.3327C92.8847 38.3327 94.9534 36.88 94.9534 33.3401V24.7332H92.9751V25.5142ZM96.3924 33.7391H98.4789V19.6493H96.3924V33.7391ZM101.553 29.0913C101.5 27.2396 102.975 26.2952 104.035 26.2952C104.864 26.2952 105.565 26.7122 105.798 27.3118L101.553 29.0913ZM108.029 27.4932C107.633 26.4226 106.428 24.4436 103.964 24.4436C101.518 24.4436 99.4859 26.3854 99.4859 29.2367C99.4859 31.9235 101.5 34.0298 104.197 34.0298C106.374 34.0298 107.633 32.6864 108.155 31.9054L106.536 30.8156C105.997 31.6147 105.259 32.141 104.197 32.141C103.137 32.141 102.381 31.6507 101.895 30.6894L108.244 28.0376L108.029 27.4932ZM57.4471 25.9143V27.9474H62.2666C62.1226 29.0913 61.7452 29.9264 61.1703 30.5068C60.4681 31.2157 59.3707 31.9967 57.4471 31.9967C54.4787 31.9967 52.1588 29.5816 52.1588 26.586C52.1588 23.5893 54.4787 21.1752 57.4471 21.1752C59.048 21.1752 60.2169 21.8109 61.0799 22.6279L62.501 21.1933C61.2953 20.0313 59.6955 19.141 57.4471 19.141C53.3824 19.141 49.9651 22.4826 49.9651 26.586C49.9651 30.6894 53.3824 34.0298 57.4471 34.0298C59.6408 34.0298 61.2953 33.3029 62.5903 31.9415C63.9222 30.5981 64.3353 28.7104 64.3353 27.1844C64.3353 26.7122 64.2995 26.2772 64.227 25.9143H57.4471ZM69.8156 32.141C68.3766 32.141 67.1352 30.943 67.1352 29.2367C67.1352 27.5113 68.3766 26.3313 69.8156 26.3313C71.2535 26.3313 72.495 27.5113 72.495 29.2367C72.495 30.943 71.2535 32.141 69.8156 32.141ZM69.8156 24.4436C67.1888 24.4436 65.0486 26.4586 65.0486 29.2367C65.0486 31.9967 67.1888 34.0298 69.8156 34.0298C72.4414 34.0298 74.5815 31.9967 74.5815 29.2367C74.5815 26.4586 72.4414 24.4436 69.8156 24.4436ZM80.2126 32.141C78.7735 32.141 77.5321 30.943 77.5321 29.2367C77.5321 27.5113 78.7735 26.3313 80.2126 26.3313C81.6516 26.3313 82.8919 27.5113 82.8919 29.2367C82.8919 30.943 81.6516 32.141 80.2126 32.141ZM80.2126 24.4436C77.5868 24.4436 75.4467 26.4586 75.4467 29.2367C75.4467 31.9967 77.5868 34.0298 80.2126 34.0298C82.8383 34.0298 84.9784 31.9967 84.9784 29.2367C84.9784 26.4586 82.8383 24.4436 80.2126 24.4436Z" fill="white"/>
</svg>
