<svg width="1078" height="715" viewBox="0 0 1078 715" xmlns="http://www.w3.org/2000/svg" fill="none"><g clip-path="url(#a)"><rect width="1077.89" height="715" rx="16" fill="#fff"/><circle cx="35.93" cy="28.744" r="8.982" fill="#F4F4F8" filter="url(#b)"/><circle cx="62.877" cy="28.743" r="8.982" fill="#F4F4F8" filter="url(#c)"/><circle cx="89.824" cy="28.743" r="8.982" fill="#F4F4F8" filter="url(#d)"/><path fill-rule="evenodd" clip-rule="evenodd" d="M137.728 22.16c.353-1.41 1.619-2.399 3.073-2.399h156.738c1.453 0 2.72.989 3.072 2.399l8.383 33.531h-179.648l8.382-33.531zM311.819 23.051c-.51-1.631.708-3.289 2.418-3.289h27.028c1.108 0 2.087.72 2.418 1.778l7.399 23.677c.51 1.631-.709 3.289-2.418 3.289h-27.028c-1.108 0-2.088-.72-2.418-1.778l-7.399-23.677z" fill="#F4F4F8"/><path fill="#F4F4F8" d="M0 55.691h1077.89v52.098h-1077.89z"/><rect x="26.947" y="66.471" width="1023.99" height="30.54" rx="15.27" fill="#fff"/><rect x="82.23" y="255.676" width="232.889" height="206.018" rx="12" fill="#F4F4F8"/><rect x="421.119" y="255.676" width="232.889" height="206.018" rx="12" fill="#F4F4F8"/><rect x="760.009" y="255.676" width="232.889" height="206.018" rx="12" fill="#F4F4F8"/><rect x="454.507" y="665.954" width="170.666" height="12.575" rx="6.288" fill="#F4F4F8"/><rect width="1077.89" height="715" rx="16" fill="#DCDEE8" style="mix-blend-mode:multiply"/></g><defs><filter id="b" x="-36.386" y="-11.905" width="144.631" height="144.631" filterUnits="userSpaceOnUse" color-interpolation-filters="sRGB"><feFlood flood-opacity="0" result="BackgroundImageFix"/><feColorMatrix in="SourceAlpha" values="0 0 0 0 0 0 0 0 0 0 0 0 0 0 0 0 0 0 127 0" result="hardAlpha"/><feOffset dy="31.667"/><feGaussianBlur stdDeviation="31.667"/><feColorMatrix values="0 0 0 0 0.729412 0 0 0 0 0.737255 0 0 0 0 0.764706 0 0 0 0.25 0"/><feBlend in2="BackgroundImageFix" result="effect1_dropShadow_10_18"/><feBlend in="SourceGraphic" in2="effect1_dropShadow_10_18" result="shape"/></filter><filter id="c" x="-9.439" y="-11.906" width="144.631" height="144.631" filterUnits="userSpaceOnUse" color-interpolation-filters="sRGB"><feFlood flood-opacity="0" result="BackgroundImageFix"/><feColorMatrix in="SourceAlpha" values="0 0 0 0 0 0 0 0 0 0 0 0 0 0 0 0 0 0 127 0" result="hardAlpha"/><feOffset dy="31.667"/><feGaussianBlur stdDeviation="31.667"/><feColorMatrix values="0 0 0 0 0.729412 0 0 0 0 0.737255 0 0 0 0 0.764706 0 0 0 0.25 0"/><feBlend in2="BackgroundImageFix" result="effect1_dropShadow_10_18"/><feBlend in="SourceGraphic" in2="effect1_dropShadow_10_18" result="shape"/></filter><filter id="d" x="17.508" y="-11.906" width="144.631" height="144.631" filterUnits="userSpaceOnUse" color-interpolation-filters="sRGB"><feFlood flood-opacity="0" result="BackgroundImageFix"/><feColorMatrix in="SourceAlpha" values="0 0 0 0 0 0 0 0 0 0 0 0 0 0 0 0 0 0 127 0" result="hardAlpha"/><feOffset dy="31.667"/><feGaussianBlur stdDeviation="31.667"/><feColorMatrix values="0 0 0 0 0.729412 0 0 0 0 0.737255 0 0 0 0 0.764706 0 0 0 0.25 0"/><feBlend in2="BackgroundImageFix" result="effect1_dropShadow_10_18"/><feBlend in="SourceGraphic" in2="effect1_dropShadow_10_18" result="shape"/></filter><clipPath id="a"><path fill="#fff" d="M0 0h1077.89v715h-1077.89z"/></clipPath></defs></svg>