<svg width="126" height="34" fill="none" xmlns="http://www.w3.org/2000/svg"><path d="m23.32 28.371-7.972 5.31c-.636.42-1.455.43-2.091.01l-8.164-5.33C1.91 26.281 0 22.771 0 19.001V6.091c0-1.69 1.152-3.17 2.799-3.61l7.467-1.97a15.31 15.31 0 0 1 7.78 0l7.467 1.97a3.74 3.74 0 0 1 2.8 3.61v12.98c.01 3.73-1.87 7.21-4.992 9.3Z" fill="#E20613"/><path d="M20.764 11.39H7.548c-1.041 0-1.89-.84-1.89-1.87 0-1.03.849-1.87 1.89-1.87h13.216c1.04 0 1.89.84 1.89 1.87a1.87 1.87 0 0 1-1.89 1.87Zm-6.608 3.74c0-1.03-.849-1.87-1.89-1.87H7.548c-1.041 0-1.89.84-1.89 1.87 0 1.03.849 1.87 1.89 1.87h4.718c1.051 0 1.89-.84 1.89-1.87Zm-4.719 5.61c0-1.03-.849-1.87-1.89-1.87-1.04 0-1.889.84-1.889 1.87 0 1.03.849 1.87 1.89 1.87 1.05 0 1.89-.84 1.89-1.87Z" fill="#fff"/><path d="M59.039 13.73c0 1.28-.303 2.25-.91 2.92-.606.67-1.404 1.14-2.394 1.42-.99.27-2.405.53-4.244.78-1.384.19-2.415.38-3.092.56-.677.18-1.162.41-1.465.7-.303.29-.475.69-.546 1.21h12.328v4.06h-17.43c-.04-.66-.06-1.23-.06-1.71 0-1.65.211-3.03.646-4.14a5.915 5.915 0 0 1 2.122-2.71c.98-.7 2.303-1.2 3.97-1.5.718-.13 1.708-.25 2.961-.38.738-.06 1.304-.13 1.688-.19.383-.06.697-.16.93-.3.232-.14.353-.34.353-.59 0-.35-.132-.6-.384-.77-.253-.17-.596-.27-1.02-.31-.425-.04-1.041-.07-1.83-.07h-.616c-.798 0-1.657.07-2.566.22-.91.15-1.758.34-2.526.58-.768.24-1.354.48-1.748.72L41.953 9.7c1.101-.41 2.425-.73 3.96-.96a30.46 30.46 0 0 1 4.507-.35c2.748 0 4.87.41 6.376 1.24 1.505.83 2.243 2.19 2.243 4.1ZM68.92 15.91h10.418v4.19H68.921v5.26h-5.113V8.62h17.875v4.13H68.92v3.16ZM88.897 22.2l-1.516 3.16h-5.466l8.528-16.74h6.265l8.376 16.74h-5.466l-1.486-3.16h-9.235Zm4.688-9.74-2.849 5.92h5.618l-2.769-5.92ZM108.873 19.63c.434.24 1.051.5 1.859.77s1.738.5 2.799.69c1.061.19 2.142.28 3.253.28 1.102 0 1.961-.04 2.577-.11.616-.07 1.071-.21 1.364-.4.293-.19.445-.48.445-.86 0-.27-.132-.47-.404-.6-.273-.13-.667-.21-1.183-.25-.515-.04-1.344-.08-2.495-.11-.718-.02-1.243-.03-1.567-.05-1.505-.04-2.778-.19-3.829-.46-1.051-.27-1.89-.73-2.506-1.4-.616-.67-.93-1.58-.93-2.74 0-1.24.374-2.3 1.112-3.2.738-.9 1.809-1.58 3.223-2.07 1.415-.49 3.102-.72 5.073-.72 2.707 0 5.203.18 7.477.55l-.98 4.42c-.849-.23-1.87-.42-3.062-.57a28.13 28.13 0 0 0-3.506-.23c-1.001 0-1.819.04-2.435.13-.617.08-1.081.23-1.385.42-.303.2-.454.47-.454.81 0 .26.101.45.293.56.192.12.505.2.919.24.414.04 1.102.07 2.072.1l2.081.08c1.647.08 2.961.22 3.941.43s1.788.64 2.425 1.3c.636.66.96 1.65.96 2.97 0 2.01-.788 3.5-2.365 4.48-1.576.98-3.819 1.47-6.719 1.47-3.082 0-6.093-.3-9.023-.9l.97-5.03Z" fill="#211E1B"/></svg>