<svg width="28" height="34" fill="none" xmlns="http://www.w3.org/2000/svg"><path d="M23.064 28.05 15.179 33.3a1.873 1.873 0 0 1-2.068.01L5.036 28.04C1.89 25.983 0 22.512 0 18.783V6.015c0-1.67 1.14-3.135 2.768-3.57L10.153.497a15.14 15.14 0 0 1 7.694 0l7.385 1.948A3.699 3.699 0 0 1 28 6.015v12.837c.01 3.69-1.849 7.13-4.936 9.198Z" fill="#E20613"/><path d="M20.535 11.256H7.465c-1.03 0-1.869-.83-1.869-1.85 0-1.018.84-1.849 1.869-1.849h13.07c1.03 0 1.87.83 1.87 1.85a1.85 1.85 0 0 1-1.87 1.849ZM14 14.955c0-1.019-.84-1.85-1.868-1.85H7.465c-1.03 0-1.869.831-1.869 1.85 0 1.018.84 1.849 1.869 1.849h4.667c1.039 0 1.868-.83 1.868-1.85Zm-4.666 5.548c0-1.019-.84-1.85-1.87-1.85-1.028 0-1.868.831-1.868 1.85 0 1.018.84 1.85 1.869 1.85 1.04 0 1.869-.832 1.869-1.85Z" fill="#fff"/></svg>