<svg width="136" height="166" fill="none" xmlns="http://www.w3.org/2000/svg"><path fill-rule="evenodd" clip-rule="evenodd" d="M86.744 2.306l35.743 9.66C130.333 14.164 136 21.19 136 29.534v63.238c0 18.445-9.154 35.572-23.974 45.672l-38.36 25.91c-3.05 2.196-6.974 2.196-10.025 0l-39.23-25.91C9.153 128.343 0 111.216 0 92.771V29.533c0-8.344 5.667-15.37 13.513-17.566l35.743-9.661c12.206-3.075 25.282-3.075 37.488 0zm-59.718 98.809c0 5.27 3.923 9.222 9.153 9.222 4.795 0 9.154-3.952 9.154-9.222s-4.359-9.222-9.154-9.222c-5.23 0-9.154 4.391-9.154 9.222zm31.82-18.005H36.179c-5.23 0-9.154-3.953-9.154-9.222 0-5.27 3.924-9.223 9.154-9.223h22.667c4.795 0 9.154 3.953 9.154 9.223 0 4.83-4.36 9.222-9.154 9.222zM36.179 55.443h63.206c5.23 0 9.153-3.952 9.589-9.222 0-5.27-4.359-9.222-9.154-9.222H36.18c-5.231 0-9.154 4.391-9.154 9.222 0 5.27 4.358 9.222 9.153 9.222z" fill="#ED1C24"/></svg>