<svg width="380" height="252" fill="none" xmlns="http://www.w3.org/2000/svg"><g clip-path="url(#prefix__clip0_1160_138)"><rect width="380" height="252" rx="8" fill="none"/><rect width="380" height="252" rx="5" fill="#15161B"/><path d="M110 0h262a8 8 0 018 8v236a8 8 0 01-8 8H110V0z" fill="#1C1D24"/><path d="M146.359 155.641a30.555 30.555 0 0123.282-23.282A.36.36 0 00170 132a.36.36 0 00-.359-.359 30.555 30.555 0 01-23.282-23.282.36.36 0 00-.718 0 30.555 30.555 0 01-23.282 23.282.36.36 0 00-.359.359.36.36 0 00.359.359 30.555 30.555 0 0123.282 23.282.356.356 0 00.222.332.356.356 0 00.274 0 .358.358 0 00.222-.332z" fill="#F4F4F8"/><g clip-path="url(#prefix__clip1_1160_138)"><path d="M349.85 131.825l2.15 1.925v1.5h-5.25v6.025l-.75.75-.75-.75v-6.025H340v-1.5l2-1.925V123.5h-1.25V122h10.35v1.5h-1.25v8.325z" fill="#D3D4E2"/></g><rect x="182" y="120" width="104" height="9" rx="1.9" fill="#F4F4F8"/><rect x="182" y="135" width="64" height="9" rx="1.9" fill="#F4F4F8"/><rect x="44" y="82" width="320" height="115" rx="16" fill="#2F313B"/><path d="M117.24 119.36V122h-10.58v-2.1l5.4-5.1c.573-.547.96-1.013 1.16-1.4.2-.4.3-.793.3-1.18 0-.56-.193-.987-.58-1.28-.373-.307-.927-.46-1.66-.46-.613 0-1.167.12-1.66.36a3.098 3.098 0 00-1.24 1.04l-2.36-1.52c.547-.813 1.3-1.447 2.26-1.9.96-.467 2.06-.7 3.3-.7 1.04 0 1.947.173 2.72.52.787.333 1.393.813 1.82 1.44.44.613.66 1.34.66 2.18 0 .76-.16 1.473-.48 2.14-.32.667-.94 1.427-1.86 2.28l-3.22 3.04h6.02zm5.457-8.76v3.7h6.48v2.6h-6.48v5.1h-3.24v-14h10.58v2.6h-7.34zm18.167 8.4h-6.5l-1.24 3h-3.32l6.24-14h3.2l6.26 14h-3.4l-1.24-3zm-1.02-2.46l-2.22-5.36-2.22 5.36h4.44zm11.713 5.7c-1.107 0-2.18-.147-3.22-.44-1.027-.307-1.853-.7-2.48-1.18l1.1-2.44c.6.44 1.313.793 2.14 1.06.827.267 1.653.4 2.48.4.92 0 1.6-.133 2.04-.4.44-.28.66-.647.66-1.1 0-.333-.133-.607-.4-.82-.253-.227-.587-.407-1-.54-.4-.133-.947-.28-1.64-.44-1.067-.253-1.94-.507-2.62-.76a4.327 4.327 0 01-1.76-1.22c-.48-.56-.72-1.307-.72-2.24 0-.813.22-1.547.66-2.2.44-.667 1.1-1.193 1.98-1.58.893-.387 1.98-.58 3.26-.58.893 0 1.767.107 2.62.32.853.213 1.6.52 2.24.92l-1 2.46c-1.293-.733-2.587-1.1-3.88-1.1-.907 0-1.58.147-2.02.44-.427.293-.64.68-.64 1.16 0 .48.247.84.74 1.08.507.227 1.273.453 2.3.68 1.067.253 1.94.507 2.62.76.68.253 1.26.653 1.74 1.2.493.547.74 1.287.74 2.22 0 .8-.227 1.533-.68 2.2-.44.653-1.107 1.173-2 1.56s-1.98.58-3.26.58zm24.138-5.58c0 .04-.02.32-.06.84h-8.14a2.535 2.535 0 001.04 1.58c.547.387 1.227.58 2.04.58.56 0 1.053-.08 1.48-.24.44-.173.847-.44 1.22-.8l1.66 1.8c-1.013 1.16-2.493 1.74-4.44 1.74-1.213 0-2.287-.233-3.22-.7-.933-.48-1.653-1.14-2.16-1.98-.507-.84-.76-1.793-.76-2.86 0-1.053.247-2 .74-2.84a5.255 5.255 0 012.06-1.98c.88-.48 1.86-.72 2.94-.72 1.053 0 2.007.227 2.86.68a4.883 4.883 0 012 1.96c.493.84.74 1.82.74 2.94zm-5.58-3.22c-.707 0-1.3.2-1.78.6-.48.4-.773.947-.88 1.64h5.3c-.107-.68-.4-1.22-.88-1.62-.48-.413-1.067-.62-1.76-.62zm14.204 8.56l-2.36-3.3-2.44 3.3h-3.4l4.14-5.42-4-5.34h3.5l2.28 3.14 2.34-3.14h3.32l-4 5.26 4.16 5.5h-3.54zm11.995-.52c-.307.227-.687.4-1.14.52a5.91 5.91 0 01-1.4.16c-1.28 0-2.274-.327-2.98-.98-.694-.653-1.04-1.613-1.04-2.88v-4.42h-1.66v-2.4h1.66v-2.62h3.12v2.62h2.68v2.4h-2.68v4.38c0 .453.113.807.34 1.06.24.24.573.36 1 .36.493 0 .913-.133 1.26-.4l.84 2.2zm11.959-4.82c0 .04-.02.32-.06.84h-8.14a2.535 2.535 0 001.04 1.58c.547.387 1.227.58 2.04.58.56 0 1.053-.08 1.48-.24.44-.173.847-.44 1.22-.8l1.66 1.8c-1.013 1.16-2.493 1.74-4.44 1.74-1.213 0-2.287-.233-3.22-.7-.933-.48-1.653-1.14-2.16-1.98-.507-.84-.76-1.793-.76-2.86 0-1.053.247-2 .74-2.84a5.255 5.255 0 012.06-1.98c.88-.48 1.86-.72 2.94-.72 1.053 0 2.007.227 2.86.68a4.883 4.883 0 012 1.96c.493.84.74 1.82.74 2.94zm-5.58-3.22c-.707 0-1.3.2-1.78.6-.48.4-.773.947-.88 1.64h5.3c-.107-.68-.4-1.22-.88-1.62-.48-.413-1.067-.62-1.76-.62zm14.197-2.36c1.333 0 2.407.4 3.22 1.2.827.8 1.24 1.987 1.24 3.56V122h-3.12v-5.68c0-.853-.187-1.487-.56-1.9-.373-.427-.913-.64-1.62-.64-.787 0-1.413.247-1.88.74-.467.48-.7 1.2-.7 2.16V122h-3.12v-10.76h2.98v1.26c.413-.453.927-.8 1.54-1.04a5.247 5.247 0 012.02-.38zm10.908 11.08c-.893 0-1.766-.107-2.62-.32-.853-.227-1.533-.507-2.04-.84l1.04-2.24c.48.307 1.06.56 1.74.76.68.187 1.347.28 2 .28 1.32 0 1.98-.327 1.98-.98 0-.307-.18-.527-.54-.66-.36-.133-.913-.247-1.66-.34-.88-.133-1.606-.287-2.18-.46a3.453 3.453 0 01-1.5-.92c-.413-.44-.62-1.067-.62-1.88 0-.68.194-1.28.58-1.8.4-.533.974-.947 1.72-1.24.76-.293 1.654-.44 2.68-.44.76 0 1.514.087 2.26.26.76.16 1.387.387 1.88.68l-1.04 2.22a6.21 6.21 0 00-3.1-.8c-.666 0-1.166.093-1.5.28-.333.187-.5.427-.5.72 0 .333.18.567.54.7.36.133.934.26 1.72.38.88.147 1.6.307 2.16.48.56.16 1.047.46 1.46.9.414.44.62 1.053.62 1.84 0 .667-.2 1.26-.6 1.78-.4.52-.986.927-1.76 1.22-.76.28-1.666.42-2.72.42zm7.005-10.92h3.12V122h-3.12v-10.76zm1.56-1.5c-.573 0-1.04-.167-1.4-.5a1.622 1.622 0 01-.54-1.24c0-.493.18-.907.54-1.24.36-.333.827-.5 1.4-.5.574 0 1.04.16 1.4.48.36.32.54.72.54 1.2 0 .52-.18.953-.54 1.3-.36.333-.826.5-1.4.5zm9.576 12.42c-1.133 0-2.153-.233-3.06-.7a5.37 5.37 0 01-2.1-1.98c-.507-.84-.76-1.793-.76-2.86s.253-2.02.76-2.86a5.231 5.231 0 012.1-1.96c.907-.48 1.927-.72 3.06-.72s2.147.24 3.04.72a5.231 5.231 0 012.1 1.96c.507.84.76 1.793.76 2.86s-.253 2.02-.76 2.86a5.37 5.37 0 01-2.1 1.98c-.893.467-1.907.7-3.04.7zm0-2.56c.8 0 1.453-.267 1.96-.8.52-.547.78-1.273.78-2.18 0-.907-.26-1.627-.78-2.16-.507-.547-1.16-.82-1.96-.82s-1.46.273-1.98.82c-.52.533-.78 1.253-.78 2.16 0 .907.26 1.633.78 2.18.52.533 1.18.8 1.98.8zm14.525-8.52c1.334 0 2.407.4 3.22 1.2.827.8 1.24 1.987 1.24 3.56V122h-3.12v-5.68c0-.853-.186-1.487-.56-1.9-.373-.427-.913-.64-1.62-.64-.786 0-1.413.247-1.88.74-.466.48-.7 1.2-.7 2.16V122h-3.12v-10.76h2.98v1.26a4.05 4.05 0 011.54-1.04 5.25 5.25 0 012.02-.38z" fill="#fff"/><path d="M84.358 128.057l-9.01 6.002a2.14 2.14 0 01-2.364.011l-9.228-6.024c-3.598-2.351-5.756-6.319-5.756-10.58v-14.591c0-1.91 1.302-3.583 3.163-4.08l8.44-2.227a17.303 17.303 0 018.794 0l8.44 2.227a4.228 4.228 0 013.163 4.08v14.671c.011 4.215-2.113 8.149-5.642 10.511z" fill="#E20613"/><path d="M81.469 108.864H66.53c-1.177 0-2.136-.949-2.136-2.113 0-1.165.96-2.114 2.136-2.114h14.938c1.176 0 2.135.949 2.135 2.114a2.114 2.114 0 01-2.135 2.113zm-7.47 4.227c0-1.164-.959-2.113-2.135-2.113h-5.333c-1.177 0-2.136.949-2.136 2.113 0 1.164.96 2.114 2.136 2.114h5.333c1.188 0 2.136-.95 2.136-2.114zm-5.333 6.341c0-1.164-.959-2.114-2.135-2.114-1.177 0-2.136.95-2.136 2.114s.96 2.114 2.136 2.114c1.188 0 2.135-.95 2.135-2.114z" fill="#fff"/><path d="M332.137 117.899l.143 2.59-.953.953-3.337-3.336-3.83 3.829h-.953v-.953l3.829-3.83-3.337-3.337.954-.953 2.495.048 5.291-5.292-.795-.794.954-.954 6.578 6.579-.953.953-.795-.794-5.291 5.291z" fill="#797A81"/><circle opacity=".2" cx="331" cy="115" r="18.5" transform="rotate(45 331 115)" stroke="#797A81"/><path d="M108 140.9a1.9 1.9 0 011.9-1.9h120.2a1.9 1.9 0 011.9 1.9v5.2a1.9 1.9 0 01-1.9 1.9H109.9a1.9 1.9 0 01-1.9-1.9v-5.2zM108 157.9a1.9 1.9 0 011.9-1.9h80.2a1.9 1.9 0 011.9 1.9v5.2a1.9 1.9 0 01-1.9 1.9h-80.2a1.9 1.9 0 01-1.9-1.9v-5.2z" fill="#1C1D24"/><path fill="#2F313B" d="M110 16h270v58H110z"/><path d="M110 27h190c9.941 0 18 8.059 18 18s-8.059 18-18 18H110V27z" fill="#22242C"/><circle opacity=".3" cx="345" cy="45" r="19" fill="#E20613"/><path d="M353.474 49.69c0-.038.026-.076.026-.114v-9.152-.02c0-.044-.019-.082-.026-.12a.532.532 0 00-.031-.146c0-.012-.007-.025-.013-.038v-.013c-.013-.031-.045-.05-.064-.082-.026-.038-.045-.083-.083-.12l-.032-.032c-.032-.032-.077-.051-.115-.077-.032-.019-.051-.05-.09-.063l-7.704-3.643s-.026 0-.039-.013a.73.73 0 00-.159-.038c-.051-.006-.096-.019-.147-.019-.051 0-.096.013-.141.019-.057.013-.108.02-.159.038-.013 0-.026 0-.039.013l-7.704 3.637c-.032.019-.058.044-.09.063-.038.025-.083.044-.115.076l-.032.032a.84.84 0 00-.083.12c-.019.032-.045.051-.064.083v.013c0 .012-.013.025-.013.038-.019.044-.019.095-.031.146-.007.044-.026.082-.026.127v9.171c0 .045.019.076.026.114.006.058.012.115.031.172.02.05.052.089.077.133.026.044.051.089.083.127a.806.806 0 00.147.108c.032.019.058.05.09.07l7.698 3.63s.013 0 .019.007c.013 0 .026.006.038.012.007 0 .019 0 .026.007l.057.019a.71.71 0 00.198.025c.064 0 .135-.013.198-.025.02 0 .039-.013.058-.02.006 0 .019 0 .026-.006a.094.094 0 00.038-.012c.006 0 .013 0 .019-.007l7.705-3.63c.038-.02.057-.045.089-.07a.806.806 0 00.147-.108c.038-.038.058-.083.083-.127.026-.044.058-.082.077-.133.019-.057.025-.114.032-.172h.012zm-8.477-12.027l5.839 2.755-5.839 2.754-5.839-2.748 5.839-2.761zm-6.9 4.011l6.101 2.882v7.394l-6.101-2.875v-7.4zm7.698 2.882l6.108-2.882v7.394l-6.108 2.882v-7.394z" fill="#E20613"/></g><defs><clipPath id="prefix__clip0_1160_138"><rect width="380" height="252" rx="8" fill="#fff"/></clipPath><clipPath id="prefix__clip1_1160_138"><path fill="#fff" transform="translate(340 122)" d="M0 0h12v20.025H0z"/></clipPath></defs></svg>