<svg viewBox="0 0 380 252" fill="none" xmlns="http://www.w3.org/2000/svg"><g clip-path="url(#prefix__clip0_1307_38)"><rect width="380" height="252" rx="8" fill="#fff"/><rect width="380" height="252" rx="5" fill="#DCDEE8"/><path d="M0 0h372a8 8 0 018 8v236a8 8 0 01-8 8H0V0z" fill="#F4F4F8"/><path fill="#fff" d="M0 16h380v58H0z"/><path d="M1 27h235.5c9.941 0 18 8.059 18 18s-8.059 18-18 18H1V27z" fill="#F4F4F8"/><path d="M286.741-2v33.88M254.997 11.362l23.957 23.957M242 43.259h33.879M287.259 88V66.62M332 42.741h-21.379M318.637 10.998l-23.956 23.956" stroke="#ED1C24" stroke-miterlimit="10" stroke-linecap="round"/><g filter="url(#prefix__filter0_d_1307_38)"><path d="M284.085 47.03l31.429 73.09c1.584 3.696 6.831 3.665 8.362-.049l10.665-26.07a4.517 4.517 0 012.463-2.464l26.07-10.664c3.714-1.516 3.745-6.762.05-8.363l-73.098-31.42c-3.76-1.617-7.558 2.18-5.941 5.94z" fill="#fff"/><path d="M316.893 119.529l-.001-.001-31.429-73.09s0 0 0 0c-1.081-2.514 1.456-5.052 3.97-3.97h0l73.094 31.419h.002c2.497 1.084 2.439 4.593-.022 5.597h-.001l-26.07 10.665s0 0 0 0a6.022 6.022 0 00-3.282 3.279l-.002.004L322.49 119.5l-.001.001c-1.024 2.48-4.534 2.508-5.596.029z" stroke="#ED1C24" stroke-width="3"/></g><g filter="url(#prefix__filter1_d_1307_38)"><rect x="62" y="52" width="216" height="45" rx="8" fill="#fff"/></g><path d="M0 145h348c8.837 0 16 7.163 16 16v91H0V145z" fill="url(#prefix__paint0_linear_1307_38)"/><g clip-path="url(#prefix__clip1_1307_38)"><rect opacity=".2" x="-9.25" y="195.75" width="70.5" height="94.5" rx="15.25" stroke="#D2D4E2" stroke-width="1.5"/><rect opacity=".2" x="86.75" y="195.75" width="70.5" height="94.5" rx="15.25" stroke="#D2D4E2" stroke-width="1.5"/><rect opacity=".2" x="182.75" y="195.75" width="70.5" height="94.5" rx="15.25" stroke="#D2D4E2" stroke-width="1.5"/><path d="M38.864 259.6l-.048-22.272-11.04 18.432h-2.784l-11.04-18.144V259.6H8V226h5.136l13.344 22.272L39.584 226h5.136l.048 33.6h-5.904zM107 226h14.688c3.584 0 6.768.704 9.552 2.112 2.784 1.376 4.944 3.344 6.48 5.904 1.536 2.528 2.304 5.456 2.304 8.784 0 3.328-.768 6.272-2.304 8.832-1.536 2.528-3.696 4.496-6.48 5.904-2.784 1.376-5.968 2.064-9.552 2.064H107V226zm14.4 28.32c2.464 0 4.624-.464 6.48-1.392 1.888-.96 3.328-2.304 4.32-4.032 1.024-1.76 1.536-3.792 1.536-6.096 0-2.304-.512-4.32-1.536-6.048-.992-1.76-2.432-3.104-4.32-4.032-1.856-.96-4.016-1.44-6.48-1.44h-8.16v23.04h8.16zM226.544 251.824h-16.8l-3.312 7.776H200l15.12-33.6h6.144l15.168 33.6h-6.528l-3.36-7.776zm-2.064-4.896l-6.336-14.688-6.288 14.688h12.624z" fill="#F4F4F8"/></g></g><defs><clipPath id="prefix__clip0_1307_38"><rect width="380" height="252" rx="8" fill="#fff"/></clipPath><clipPath id="prefix__clip1_1307_38"><path fill="#fff" transform="translate(0 195)" d="M0 0h254v57H0z"/></clipPath><filter id="prefix__filter0_d_1307_38" x="233.702" y="15.707" width="182.175" height="182.167" filterUnits="userSpaceOnUse" color-interpolation-filters="sRGB"><feFlood flood-opacity="0" result="BackgroundImageFix"/><feColorMatrix in="SourceAlpha" values="0 0 0 0 0 0 0 0 0 0 0 0 0 0 0 0 0 0 127 0" result="hardAlpha"/><feOffset dy="25"/><feGaussianBlur stdDeviation="25"/><feColorMatrix values="0 0 0 0 0.729412 0 0 0 0 0.737255 0 0 0 0 0.764706 0 0 0 0.5 0"/><feBlend mode="multiply" in2="BackgroundImageFix" result="effect1_dropShadow_1307_38"/><feBlend in="SourceGraphic" in2="effect1_dropShadow_1307_38" result="shape"/></filter><filter id="prefix__filter1_d_1307_38" x="-38" y="2" width="416" height="245" filterUnits="userSpaceOnUse" color-interpolation-filters="sRGB"><feFlood flood-opacity="0" result="BackgroundImageFix"/><feColorMatrix in="SourceAlpha" values="0 0 0 0 0 0 0 0 0 0 0 0 0 0 0 0 0 0 127 0" result="hardAlpha"/><feOffset dy="50"/><feGaussianBlur stdDeviation="50"/><feComposite in2="hardAlpha" operator="out"/><feColorMatrix values="0 0 0 0 0.729412 0 0 0 0 0.737255 0 0 0 0 0.764706 0 0 0 0.5 0"/><feBlend mode="multiply" in2="BackgroundImageFix" result="effect1_dropShadow_1307_38"/><feBlend in="SourceGraphic" in2="effect1_dropShadow_1307_38" result="shape"/></filter><linearGradient id="prefix__paint0_linear_1307_38" x1="182" y1="145" x2="182" y2="315.571" gradientUnits="userSpaceOnUse"><stop offset=".469" stop-color="#fff"/><stop offset="1" stop-color="#F2F2F7"/></linearGradient></defs></svg>