<svg viewBox="0 0 380 252" fill="none" xmlns="http://www.w3.org/2000/svg"><g clip-path="url(#prefix__clip0_1307_84)"><rect width="380" height="252" rx="8" fill="#fff"/><rect width="380" height="252" rx="5" fill="#DCDEE8"/><path d="M0 0h372a8 8 0 018 8v236a8 8 0 01-8 8H0V0z" fill="#F4F4F8"/><path d="M146.359 155.641a30.555 30.555 0 0123.282-23.282A.36.36 0 00170 132a.36.36 0 00-.359-.359 30.555 30.555 0 01-23.282-23.282.36.36 0 00-.718 0 30.555 30.555 0 01-23.282 23.282.36.36 0 00-.359.359.36.36 0 00.359.359 30.555 30.555 0 0123.282 23.282.356.356 0 00.222.332.356.356 0 00.274 0 .358.358 0 00.222-.332z" fill="#F4F4F8"/><rect x="182" y="120" width="104" height="9" rx="1.9" fill="#F4F4F8"/><rect x="182" y="135" width="64" height="9" rx="1.9" fill="#F4F4F8"/><path d="M16 98c0-8.837 7.163-16 16-16h348v170H16V98z" fill="url(#prefix__paint0_linear_1307_84)"/><path d="M40 115.9a1.9 1.9 0 011.9-1.9h120.2a1.9 1.9 0 011.9 1.9v5.2a1.9 1.9 0 01-1.9 1.9H41.9a1.9 1.9 0 01-1.9-1.9v-5.2z" fill="#F4F4F8" style="mix-blend-mode:multiply"/><circle opacity=".2" cx="68" cy="172" r="27.25" stroke="#D2D4E2" stroke-width="1.5"/><path d="M50 217.9a1.9 1.9 0 011.9-1.9h32.2a1.9 1.9 0 011.9 1.9v2.2a1.9 1.9 0 01-1.9 1.9H51.9a1.9 1.9 0 01-1.9-1.9v-2.2zM130 217.9a1.9 1.9 0 011.9-1.9h32.2a1.9 1.9 0 011.9 1.9v2.2a1.9 1.9 0 01-1.9 1.9h-32.2a1.9 1.9 0 01-1.9-1.9v-2.2zM210 217.9a1.9 1.9 0 011.9-1.9h32.2a1.9 1.9 0 011.9 1.9v2.2a1.9 1.9 0 01-1.9 1.9h-32.2a1.9 1.9 0 01-1.9-1.9v-2.2zM290 217.9a1.9 1.9 0 011.9-1.9h32.2a1.9 1.9 0 011.9 1.9v2.2a1.9 1.9 0 01-1.9 1.9h-32.2a1.9 1.9 0 01-1.9-1.9v-2.2zM370 217.9a1.9 1.9 0 011.9-1.9h32.2a1.9 1.9 0 011.9 1.9v2.2a1.9 1.9 0 01-1.9 1.9h-32.2a1.9 1.9 0 01-1.9-1.9v-2.2z" fill="#F4F4F8" style="mix-blend-mode:multiply"/><circle opacity=".2" cx="148" cy="172" r="27.25" stroke="#D2D4E2" stroke-width="1.5"/><circle opacity=".2" cx="308" cy="172" r="27.25" stroke="#D2D4E2" stroke-width="1.5"/><circle opacity=".2" cx="388" cy="172" r="27.25" stroke="#D2D4E2" stroke-width="1.5"/><circle cx="228" cy="172" r="27.5" stroke="#D2D4E2" stroke-dasharray="4 4"/><path d="M227.257 191.651l.002.002a1.64 1.64 0 001.812-.011l.001-.001 9.008-6h.001c3.392-2.271 5.43-6.049 5.419-10.094V160.875a3.727 3.727 0 00-2.791-3.597h-.001l-8.438-2.227-5.013 36.6zm0 0l-9.228-6.024m9.228 6.024l-9.228-6.024m0 0c-3.457-2.259-5.529-6.07-5.529-10.161m5.529 10.161l-5.529-10.161m0 0v-14.591m0 14.591v-14.591m0 0c0-1.679 1.145-3.157 2.792-3.597m-2.792 3.597l2.792-3.597m0 0h.001m-.001 0h.001m0 0l8.437-2.227-8.437 2.227zm8.438-2.227a16.806 16.806 0 018.538 0h-8.538z" stroke="#D2D4E2"/><path d="M235.469 166.864h-14.938c-1.176 0-2.135-.949-2.135-2.113 0-1.164.959-2.114 2.135-2.114h14.938c1.176 0 2.136.95 2.136 2.114a2.114 2.114 0 01-2.136 2.113zM228 171.092c0-1.165-.959-2.114-2.136-2.114h-5.333c-1.176 0-2.135.949-2.135 2.114 0 1.164.959 2.113 2.135 2.113h5.333a2.121 2.121 0 002.136-2.113zm-5.333 6.34c0-1.164-.96-2.113-2.136-2.113-1.176 0-2.135.949-2.135 2.113 0 1.164.959 2.114 2.135 2.114 1.188 0 2.136-.95 2.136-2.114z" fill="#D2D4E2" style="mix-blend-mode:multiply"/><path fill="#fff" d="M0 16h380v58H0z"/><path d="M380 27H82c-9.941 0-18 8.059-18 18s8.059 18 18 18h298V27z" fill="#F4F4F8"/><path d="M42.358 59.057l-9.01 6.002a2.14 2.14 0 01-2.364.01l-9.228-6.023C18.158 56.695 16 52.727 16 48.466V33.875c0-1.91 1.302-3.583 3.163-4.08l8.44-2.227a17.303 17.303 0 018.794 0l8.44 2.227A4.228 4.228 0 0148 33.875v14.67c.011 4.216-2.113 8.15-5.642 10.512z" fill="#E20613"/><path d="M39.469 39.864H24.531c-1.176 0-2.136-.949-2.136-2.113 0-1.164.96-2.114 2.136-2.114H39.47c1.176 0 2.136.95 2.136 2.114a2.114 2.114 0 01-2.136 2.113zM32 44.092c0-1.165-.96-2.114-2.136-2.114h-5.333c-1.176 0-2.136.95-2.136 2.114s.96 2.113 2.136 2.113h5.333c1.188 0 2.136-.95 2.136-2.113zm-5.333 6.34c0-1.164-.96-2.113-2.136-2.113-1.176 0-2.136.95-2.136 2.113 0 1.164.96 2.114 2.136 2.114 1.188 0 2.136-.95 2.136-2.114z" fill="#fff"/><path d="M127 119c0 10.493-8.507 19-19 19s-19-8.507-19-19 8.507-19 19-19 19 8.507 19 19z" fill="#000"/><path fill-rule="evenodd" clip-rule="evenodd" d="M108 111c-.631 0-1.143.512-1.143 1.143v3.714a2 2 0 01-2 2h-3.714a1.143 1.143 0 000 2.286h3.714a2 2 0 012 2v3.714a1.143 1.143 0 002.286 0v-3.714a2 2 0 012-2h3.714a1.143 1.143 0 000-2.286h-3.714a2 2 0 01-2-2v-3.714c0-.631-.512-1.143-1.143-1.143z" fill="#fff"/><g filter="url(#prefix__filter0_d_1307_84)"><path d="M35.085 52.03l31.429 73.09c1.584 3.696 6.83 3.665 8.362-.049l10.665-26.07a4.52 4.52 0 012.463-2.464l26.07-10.664c3.714-1.516 3.745-6.762.05-8.363L41.026 46.09c-3.76-1.617-7.558 2.18-5.941 5.94z" fill="#fff"/><path d="M67.892 124.529v-.001l-31.43-73.09s0 0 0 0c-1.08-2.514 1.457-5.052 3.971-3.97h0l73.094 31.419h.002c2.497 1.084 2.439 4.593-.022 5.597h-.001L87.436 95.15s0 0 0 0a6.02 6.02 0 00-3.282 3.279l-.002.004L73.49 124.5l-.001.001c-1.024 2.48-4.534 2.508-5.597.029z" stroke="#ED1C24" stroke-width="3"/></g></g><defs><linearGradient id="prefix__paint0_linear_1307_84" x1="198" y1="82" x2="198" y2="353" gradientUnits="userSpaceOnUse"><stop offset=".469" stop-color="#fff"/><stop offset="1" stop-color="#F2F2F7"/></linearGradient><clipPath id="prefix__clip0_1307_84"><rect width="380" height="252" rx="8" fill="#fff"/></clipPath><filter id="prefix__filter0_d_1307_84" x="-15.298" y="20.706" width="182.175" height="182.167" filterUnits="userSpaceOnUse" color-interpolation-filters="sRGB"><feFlood flood-opacity="0" result="BackgroundImageFix"/><feColorMatrix in="SourceAlpha" values="0 0 0 0 0 0 0 0 0 0 0 0 0 0 0 0 0 0 127 0" result="hardAlpha"/><feOffset dy="25"/><feGaussianBlur stdDeviation="25"/><feColorMatrix values="0 0 0 0 0.729412 0 0 0 0 0.737255 0 0 0 0 0.764706 0 0 0 0.5 0"/><feBlend mode="multiply" in2="BackgroundImageFix" result="effect1_dropShadow_1307_84"/><feBlend in="SourceGraphic" in2="effect1_dropShadow_1307_84" result="shape"/></filter></defs></svg>