<svg viewBox="0 0 380 252" fill="none" xmlns="http://www.w3.org/2000/svg">
<g clip-path="url(#clip0_1334_77)">
<path d="M0 0H372C376.418 0 380 3.58172 380 8V244C380 248.418 376.418 252 372 252H0V0Z" fill="#18191F"/>
<path d="M146.359 155.641C147.612 149.941 150.471 144.72 154.596 140.594C158.722 136.469 163.943 133.611 169.641 132.359C169.736 132.359 169.828 132.321 169.895 132.254C169.962 132.187 170 132.095 170 132C170 131.905 169.962 131.813 169.895 131.746C169.828 131.679 169.736 131.641 169.641 131.641C163.943 130.389 158.722 127.531 154.596 123.406C150.471 119.28 147.612 114.059 146.359 108.359C146.359 108.264 146.321 108.173 146.254 108.105C146.187 108.038 146.095 108 146 108C145.905 108 145.814 108.038 145.746 108.105C145.679 108.173 145.641 108.264 145.641 108.359C144.388 114.059 141.529 119.28 137.404 123.406C133.278 127.531 128.057 130.389 122.359 131.641C122.264 131.641 122.172 131.679 122.105 131.746C122.038 131.813 122 131.905 122 132C122 132.095 122.038 132.187 122.105 132.254C122.172 132.321 122.264 132.359 122.359 132.359C128.057 133.611 133.278 136.469 137.404 140.594C141.529 144.72 144.388 149.941 145.641 155.641C145.641 155.688 145.65 155.735 145.668 155.778C145.686 155.822 145.713 155.861 145.746 155.895C145.78 155.928 145.819 155.955 145.863 155.973C145.906 155.991 145.953 156 146 156C146.047 156 146.094 155.991 146.137 155.973C146.181 155.955 146.221 155.928 146.254 155.895C146.287 155.861 146.314 155.822 146.332 155.778C146.35 155.735 146.359 155.688 146.359 155.641Z" fill="#F4F4F8"/>
<rect x="182" y="120" width="104" height="9" rx="1.9" fill="#F4F4F8"/>
<rect x="182" y="135" width="64" height="9" rx="1.9" fill="#F4F4F8"/>
<path d="M16 98C16 89.1634 23.1634 82 32 82H380V252H16V98Z" fill="url(#paint0_linear_1334_77)"/>
<path d="M40 115.9C40 114.851 40.8507 114 41.9 114H162.1C163.149 114 164 114.851 164 115.9V121.1C164 122.149 163.149 123 162.1 123H41.9C40.8507 123 40 122.149 40 121.1V115.9Z" fill="#18191F" style="mix-blend-mode:multiply"/>
<circle opacity="0.4" cx="68" cy="172" r="27.25" stroke="#18191F" stroke-width="1.5"/>
<path d="M50 217.9C50 216.851 50.8507 216 51.9 216H84.1C85.1493 216 86 216.851 86 217.9V220.1C86 221.149 85.1493 222 84.1 222H51.9C50.8507 222 50 221.149 50 220.1V217.9Z" fill="#F4F4F8" style="mix-blend-mode:multiply"/>
<path d="M130 217.9C130 216.851 130.851 216 131.9 216H164.1C165.149 216 166 216.851 166 217.9V220.1C166 221.149 165.149 222 164.1 222H131.9C130.851 222 130 221.149 130 220.1V217.9Z" fill="#F4F4F8" style="mix-blend-mode:multiply"/>
<path d="M210 217.9C210 216.851 210.851 216 211.9 216H244.1C245.149 216 246 216.851 246 217.9V220.1C246 221.149 245.149 222 244.1 222H211.9C210.851 222 210 221.149 210 220.1V217.9Z" fill="#F4F4F8" style="mix-blend-mode:multiply"/>
<path d="M290 217.9C290 216.851 290.851 216 291.9 216H324.1C325.149 216 326 216.851 326 217.9V220.1C326 221.149 325.149 222 324.1 222H291.9C290.851 222 290 221.149 290 220.1V217.9Z" fill="#F4F4F8" style="mix-blend-mode:multiply"/>
<path d="M370 217.9C370 216.851 370.851 216 371.9 216H404.1C405.149 216 406 216.851 406 217.9V220.1C406 221.149 405.149 222 404.1 222H371.9C370.851 222 370 221.149 370 220.1V217.9Z" fill="#F4F4F8" style="mix-blend-mode:multiply"/>
<circle opacity="0.4" cx="148" cy="172" r="27.25" stroke="#18191F" stroke-width="1.5"/>
<circle opacity="0.4" cx="308" cy="172" r="27.25" stroke="#18191F" stroke-width="1.5"/>
<circle opacity="0.4" cx="388" cy="172" r="27.25" stroke="#18191F" stroke-width="1.5"/>
<circle cx="228" cy="172" r="27.5" stroke="#797A81" stroke-dasharray="4 4"/>
<path d="M227.257 191.651L227.259 191.653C227.806 192.014 228.514 192.009 229.071 191.642C229.071 191.642 229.072 191.641 229.072 191.641L238.08 185.641C238.08 185.641 238.081 185.641 238.081 185.641C241.473 183.37 243.511 179.592 243.5 175.547L243.5 175.546L243.5 160.875C243.5 159.194 242.365 157.718 240.709 157.278C240.708 157.278 240.708 157.278 240.708 157.278L232.27 155.051L227.257 191.651ZM227.257 191.651L218.029 185.627M227.257 191.651L218.029 185.627M218.029 185.627C214.572 183.368 212.5 179.557 212.5 175.466M218.029 185.627L212.5 175.466M212.5 175.466V160.875M212.5 175.466V160.875M212.5 160.875C212.5 159.196 213.645 157.718 215.292 157.278M212.5 160.875L215.292 157.278M215.292 157.278C215.292 157.278 215.292 157.278 215.293 157.278M215.292 157.278L215.293 157.278M215.293 157.278L223.73 155.051L215.293 157.278ZM223.731 155.051C226.525 154.316 229.475 154.316 232.269 155.051H223.731Z" stroke="#797A81"/>
<path d="M235.469 166.864H220.531C219.355 166.864 218.396 165.915 218.396 164.751C218.396 163.587 219.355 162.637 220.531 162.637H235.469C236.645 162.637 237.605 163.587 237.605 164.751C237.605 165.926 236.657 166.864 235.469 166.864ZM228 171.092C228 169.927 227.041 168.978 225.864 168.978H220.531C219.355 168.978 218.396 169.927 218.396 171.092C218.396 172.256 219.355 173.205 220.531 173.205H225.864C227.052 173.205 228 172.256 228 171.092ZM222.667 177.432C222.667 176.268 221.707 175.319 220.531 175.319C219.355 175.319 218.396 176.268 218.396 177.432C218.396 178.596 219.355 179.546 220.531 179.546C221.719 179.546 222.667 178.596 222.667 177.432Z" fill="#797A81"/>
<rect y="16" width="380" height="58" fill="#2F313B"/>
<path d="M380 27H82C72.0589 27 64 35.0589 64 45V45C64 54.9411 72.0589 63 82 63H380V27Z" fill="#18191F"/>
<path d="M42.3583 59.0569L33.3476 65.0586C32.6281 65.5333 31.703 65.5446 30.9836 65.0699L21.7559 59.0456C18.1585 56.6947 16 52.7275 16 48.4664V33.8748C16 31.9647 17.3019 30.2919 19.1635 29.7946L27.6031 27.568C30.4811 26.8107 33.5189 26.8107 36.3968 27.568L44.8365 29.7946C46.7094 30.2919 48 31.9647 48 33.8748V48.5455C48.0114 52.7614 45.8872 56.6947 42.3583 59.0569Z" fill="#E20613"/>
<path d="M39.469 39.8644H24.5311C23.3548 39.8644 22.3955 38.915 22.3955 37.7508C22.3955 36.5866 23.3548 35.6372 24.5311 35.6372H39.469C40.6453 35.6372 41.6046 36.5866 41.6046 37.7508C41.6046 38.9263 40.6567 39.8644 39.469 39.8644ZM32.0001 44.0915C32.0001 42.9274 31.0408 41.9779 29.8644 41.9779H24.5311C23.3548 41.9779 22.3955 42.9274 22.3955 44.0915C22.3955 45.2557 23.3548 46.2051 24.5311 46.2051H29.8644C31.0522 46.2051 32.0001 45.2557 32.0001 44.0915ZM26.6667 50.4323C26.6667 49.2681 25.7074 48.3187 24.5311 48.3187C23.3548 48.3187 22.3955 49.2681 22.3955 50.4323C22.3955 51.5964 23.3548 52.5459 24.5311 52.5459C25.7188 52.5459 26.6667 51.5964 26.6667 50.4323Z" fill="white"/>
<g filter="url(#filter0_d_1334_77)">
<path d="M35.0846 52.0304L66.5139 125.12C68.0982 128.816 73.3447 128.785 74.8763 125.071L85.5407 99.0002C86.0034 97.8796 86.891 96.992 88.0036 96.5373L114.074 85.8729C117.788 84.3574 117.819 79.1109 114.124 77.5105L41.0258 46.0892C37.2663 44.4727 33.4681 48.2709 35.0846 52.0304Z" fill="#2F313B"/>
<path d="M67.8925 124.529L67.8919 124.528L36.4626 51.4379C36.4626 51.4379 36.4626 51.4379 36.4626 51.4379C35.3817 48.9239 37.9193 46.3863 40.4333 47.4672L40.4334 47.4673L113.527 78.887C113.528 78.8872 113.529 78.8874 113.529 78.8877C116.026 79.9706 115.968 83.4799 113.507 84.4841L113.506 84.4846L87.4362 95.1488C87.436 95.1489 87.4358 95.1489 87.4357 95.149C85.9486 95.7569 84.7683 96.9404 84.1542 98.4278L84.1524 98.4323L73.4895 124.499C73.4894 124.499 73.4892 124.5 73.489 124.5C72.4652 126.98 68.9552 127.008 67.8925 124.529Z" stroke="#ED1C24" stroke-width="3"/>
</g>
<path d="M127 119C127 129.493 118.493 138 108 138C97.5066 138 89 129.493 89 119C89 108.507 97.5066 100 108 100C118.493 100 127 108.507 127 119Z" fill="white"/>
<path fill-rule="evenodd" clip-rule="evenodd" d="M108 111C107.369 111 106.857 111.512 106.857 112.143V115.857C106.857 116.962 105.962 117.857 104.857 117.857H101.143C100.512 117.857 100 118.369 100 119V119C100 119.631 100.512 120.143 101.143 120.143H104.857C105.962 120.143 106.857 121.038 106.857 122.143V125.857C106.857 126.488 107.369 127 108 127V127C108.631 127 109.143 126.488 109.143 125.857V122.143C109.143 121.038 110.038 120.143 111.143 120.143H114.857C115.488 120.143 116 119.631 116 119V119C116 118.369 115.488 117.857 114.857 117.857H111.143C110.038 117.857 109.143 116.962 109.143 115.857V112.143C109.143 111.512 108.631 111 108 111V111Z" fill="#2F313B"/>
</g>
<defs>
<filter id="filter0_d_1334_77" x="-15.2979" y="20.7065" width="182.175" height="182.167" filterUnits="userSpaceOnUse" color-interpolation-filters="sRGB">
<feFlood flood-opacity="0" result="BackgroundImageFix"/>
<feColorMatrix in="SourceAlpha" type="matrix" values="0 0 0 0 0 0 0 0 0 0 0 0 0 0 0 0 0 0 127 0" result="hardAlpha"/>
<feOffset dy="25"/>
<feGaussianBlur stdDeviation="25"/>
<feColorMatrix type="matrix" values="0 0 0 0 0.0901961 0 0 0 0 0.0941176 0 0 0 0 0.117647 0 0 0 0.5 0"/>
<feBlend mode="multiply" in2="BackgroundImageFix" result="effect1_dropShadow_1334_77"/>
<feBlend mode="normal" in="SourceGraphic" in2="effect1_dropShadow_1334_77" result="shape"/>
</filter>
<linearGradient id="paint0_linear_1334_77" x1="198" y1="82" x2="198" y2="353" gradientUnits="userSpaceOnUse">
<stop offset="0.468983" stop-color="#2F313B"/>
<stop offset="1" stop-color="#282A32"/>
</linearGradient>
<clipPath id="clip0_1334_77">
<rect width="380" height="252" rx="8" fill="white"/>
</clipPath>
</defs>
</svg>
